#N canvas 100 100 600 180 10;
#X obj 20 20 inlet ;
#X obj 90 20 inlet~ ;
#X obj 20 60 loadbang ;
#X msg 90 60 440;
#X obj 160 60 osc~ ;
#X msg 230 60 220;
#X obj 300 60 osc~ ;
#X obj 370 60 *~ ;
#X obj 440 60 dac~ ;
#X obj 510 60 bang ;
#X obj 20 100 select 10 20;
#X obj 20 140 outlet ;
#X obj 90 140 outlet~ ;
#X connect 2 0 3 0;
#X connect 3 0 4 0;
#X connect 2 0 5 0;
#X connect 5 0 6 0;
#X connect 4 0 7 0;
#X connect 6 0 7 1;
#X connect 7 0 8 0;
#X connect 7 0 8 1;
#X connect 0 0 9 0;